<svg width="42" height="42" viewBox="0 0 42 42" fill="none" xmlns="http://www.w3.org/2000/svg">
<g clip-path="url(#clip0_386_145)">
<path d="M19.4874 0.0498713C19.3286 0.0666057 18.8328 0.12534 18.3954 0.176856C16.632 0.377996 14.6324 0.90759 12.8776 1.64686C6.52676 4.3004 1.74697 10.1223 0.428233 16.8C0.117827 18.3881 0.0423584 19.1684 0.0423584 21C0.0423584 23.3609 0.276968 24.99 0.898765 27.0487C2.9315 33.7851 8.2235 39.0685 14.9773 41.1091C17.01 41.7231 18.648 41.9577 21 41.9577C23.3609 41.9577 24.99 41.7231 27.0487 41.1013C33.7851 39.0685 39.0686 33.7765 41.1092 27.0227C41.7231 24.99 41.9577 23.352 41.9577 21C41.9577 20.0002 41.9078 18.8583 41.8488 18.4377C41.1682 13.5827 39.1686 9.5002 35.8349 6.16514C32.5074 2.85567 28.4419 0.848528 23.6874 0.167996C23.0324 0.0754651 19.9999 -0.00919117 19.4874 0.0498713ZM12.6417 13.2799C13.088 13.4144 13.2966 13.5404 13.5992 13.8426C14.1875 14.4398 14.322 14.7669 14.322 15.6653C14.322 16.3383 14.2964 16.464 14.0953 16.8164C13.7081 17.4713 12.8097 18.0764 12.1882 18.0928C11.7508 18.102 11.7689 17.9084 12.2473 17.4047C12.8855 16.7409 12.9777 16.4893 12.9777 15.4973C12.9698 14.5402 12.852 14.2131 12.4071 13.944C12.037 13.7173 11.6344 13.734 11.046 14.0106C9.51697 14.7423 7.86223 17.178 7.21616 19.6734C6.35876 22.9996 7.87897 25.6617 10.3822 25.2079C11.1126 25.0733 12.4904 24.3685 13.088 23.8133C13.5828 23.3609 13.5828 23.352 13.6326 22.7896C13.7429 21.6126 14.5734 20.4373 15.6834 19.8913C16.1946 19.6386 16.3216 19.6143 17.01 19.6143C17.665 19.6143 17.8162 19.6478 18.1355 19.8233C19.1517 20.4041 18.9417 21.756 17.8418 21.756C17.2036 21.756 16.8755 21.4279 17.3382 21.2527C17.792 21.0847 17.6226 20.454 17.0947 20.3116C16.4729 20.1515 15.7668 20.5718 15.3218 21.378C14.7837 22.3525 14.7591 23.5121 15.2706 24.0404C15.7668 24.5697 16.3882 24.1507 16.8676 22.9481C17.119 22.3355 17.4802 22.0073 17.9009 22.0073C18.27 22.0073 18.338 22.2344 18.1775 22.9238C17.9419 23.9902 18.102 24.2671 18.7658 23.9403C18.9837 23.8389 19.3453 23.6047 19.5632 23.4367L19.9746 23.1085L20.2529 21.6549C20.5554 20.0258 20.6719 19.8066 21.2937 19.6901C21.8909 19.5799 22.0254 19.8745 21.8062 20.8064L21.6881 21.3281L22.1255 20.8819C23.1584 19.8233 24.4273 19.3029 24.8644 19.74C25.099 19.9746 25.0734 20.2693 24.7377 21.3101C24.5786 21.8062 24.3594 22.5881 24.2596 23.0327C24.1084 23.7044 24.0992 23.8645 24.1842 23.9738C24.4532 24.2927 25.2758 23.9646 26.0066 23.2506L26.4348 22.8316L26.486 21.8984C26.5358 20.8231 26.6359 20.4373 26.9217 20.0924C27.1908 19.7735 27.678 19.5389 27.9382 19.6055C28.1984 19.6734 28.1984 19.9247 27.9638 20.6643C27.6357 21.6805 27.6702 24.0237 28.0062 24.0237C28.1407 24.0237 28.8288 23.3018 29.2662 22.6971L29.593 22.2508L29.3328 21.9831C28.879 21.504 28.77 21.1936 28.77 20.4117C28.77 19.8414 28.8124 19.6311 28.9544 19.3528C29.1904 18.9171 29.5595 18.5981 29.9966 18.4711C30.4579 18.3287 31.0295 18.5633 31.2641 18.9837C31.5 19.4119 31.4413 20.3693 31.1384 21.0256L30.9206 21.5037H31.2142C31.6178 21.5037 31.777 21.4036 32.4998 20.7231C32.8778 20.3618 33.3149 20.0504 33.6417 19.8991C34.9273 19.2954 36.44 19.6055 36.691 20.5295C36.901 21.2691 36.44 21.7895 35.6324 21.7304C35.053 21.6884 34.944 21.5368 35.28 21.2527C35.8848 20.7473 35.28 20.1016 34.4148 20.3362C33.9442 20.4629 33.415 20.9911 33.1384 21.6051C32.5832 22.8316 32.8778 24.276 33.6752 24.276C33.9944 24.276 34.5582 23.6457 34.776 23.0327C35.0362 22.3266 35.5822 21.882 35.9937 22.0418C36.2208 22.1255 36.2375 22.3522 36.0951 23.0662C35.935 23.8481 35.9104 24.5789 36.036 24.9145C36.0862 25.0399 36.2375 25.2758 36.3809 25.4349C36.6486 25.7371 36.6578 25.8464 36.4308 25.9898C36.3218 26.0653 36.1781 26.0321 35.826 25.8389C35.3388 25.5862 34.9184 25.1324 34.7672 24.7042L34.675 24.4529L34.339 24.7042C34.1454 24.8387 33.8432 24.99 33.6673 25.0399C32.97 25.2246 32.1126 24.7465 31.7104 23.9403C31.5499 23.6286 31.5 22.7138 31.6178 22.3611C31.6848 22.1675 31.6848 22.1675 31.4154 22.302C31.2733 22.3778 30.9708 22.4611 30.7362 22.4867C30.349 22.5294 30.2899 22.5714 29.9044 23.0583C29.3584 23.7375 28.3917 24.6543 27.997 24.8479C27.1576 25.2669 26.8807 25.1491 26.6615 24.2835L26.5102 23.7044L26.1486 24.0237C25.6873 24.4273 24.7633 24.9145 24.2337 25.0323C23.73 25.1413 23.1919 24.9811 22.9737 24.6451C22.6472 24.1415 22.7562 23.0751 23.2762 21.6382C23.6621 20.5718 23.3855 20.5554 22.4113 21.5716C21.6884 22.3355 21.378 22.8815 21.1769 23.73C20.9669 24.612 20.7142 24.9309 20.144 25.0655C19.7991 25.1413 19.6386 24.9309 19.7069 24.4696L19.7568 24.0991L19.4375 24.3183C18.9837 24.6287 18.4121 24.9145 18.0174 25.0235C17.6226 25.1324 17.1022 25.0156 16.9766 24.7964C16.7498 24.4109 16.7498 24.4109 16.3974 24.6875C15.6322 25.3093 14.5402 25.1324 13.9864 24.3095L13.8092 24.0493L13.2556 24.5618C11.6586 26.0233 9.66036 26.6782 8.1815 26.2244C6.2997 25.6541 5.25889 24.0404 5.27562 21.714C5.2835 19.3787 6.31644 16.9178 8.05583 15.0951C9.03889 14.0697 9.96289 13.4646 10.904 13.2379C11.5832 13.0699 11.996 13.0784 12.6417 13.2799Z" fill="#00C4CC"/>
<path d="M29.6684 19.253C29.4837 19.4374 29.5516 20.177 29.7866 20.6475C29.9044 20.891 30.03 21.0846 30.072 21.0846C30.1055 21.0846 30.181 20.891 30.24 20.6551C30.45 19.7823 30.072 18.8491 29.6684 19.253Z" fill="#00C4CC"/>
</g>
<defs>
<clipPath id="clip0_386_145">
<rect width="42" height="42" fill="white"/>
</clipPath>
</defs>
</svg>
