<svg width="42" height="42" viewBox="0 0 42 42" fill="none" xmlns="http://www.w3.org/2000/svg">
<g clip-path="url(#clip0_386_113)">
<path d="M32.1562 0H9.84375C4.4072 0 0 4.4072 0 9.84375V32.1562C0 37.5928 4.4072 42 9.84375 42H32.1562C37.5928 42 42 37.5928 42 32.1562V9.84375C42 4.4072 37.5928 0 32.1562 0Z" fill="#F4F2ED"/>
<mask id="mask0_386_113" style="mask-type:luminance" maskUnits="userSpaceOnUse" x="10" y="4" width="22" height="34">
<path d="M10.0078 4.59375H31.8872V37.4062H10.0078V4.59375Z" fill="white"/>
</mask>
<g mask="url(#mask0_386_113)">
<path d="M15.4788 37.4063C18.4976 37.4063 20.9475 34.9564 20.9475 31.9376V26.4688H15.4788C12.4601 26.4688 10.0099 28.9189 10.0099 31.9376C10.0099 34.9564 12.4601 37.4063 15.4788 37.4063Z" fill="#0ACF83"/>
<path d="M10.0099 20.9999C10.0099 17.9812 12.4601 15.5312 15.4788 15.5312H20.9475V26.4686H15.4788C12.4601 26.4686 10.0099 24.0187 10.0099 20.9999Z" fill="#A259FF"/>
<path d="M10.0099 10.0624C10.0099 7.0437 12.4601 4.59375 15.4788 4.59375H20.9475V15.5313H15.4788C12.4601 15.5313 10.0099 13.0812 10.0099 10.0624Z" fill="#F24E1E"/>
<path d="M20.9475 4.59375H26.4162C29.435 4.59375 31.8851 7.0437 31.8851 10.0624C31.8851 13.0812 29.435 15.5313 26.4162 15.5313H20.9475V4.59375Z" fill="#FF7262"/>
<path d="M31.8851 20.9999C31.8851 24.0187 29.435 26.4686 26.4162 26.4686C23.3975 26.4686 20.9475 24.0187 20.9475 20.9999C20.9475 17.9812 23.3975 15.5312 26.4162 15.5312C29.435 15.5312 31.8851 17.9812 31.8851 20.9999Z" fill="#1ABCFE"/>
</g>
</g>
<defs>
<clipPath id="clip0_386_113">
<rect width="42" height="42" rx="21" fill="white"/>
</clipPath>
</defs>
</svg>
