<svg width="42" height="42" viewBox="0 0 42 42" fill="none" xmlns="http://www.w3.org/2000/svg">
<g clip-path="url(#clip0_386_125)">
<path d="M32.1562 0H9.84375C4.4072 0 0 4.4072 0 9.84375V32.1562C0 37.5928 4.4072 42 9.84375 42H32.1562C37.5928 42 42 37.5928 42 32.1562V9.84375C42 4.4072 37.5928 0 32.1562 0Z" fill="#001E36"/>
<path d="M9.44995 29.2097V11.2022C9.44995 11.0797 9.50245 11.0098 9.62501 11.0098C9.92245 11.0098 10.2025 11.0098 10.605 10.9922C11.025 10.9747 11.4625 10.9747 11.935 10.9573C12.4075 10.9397 12.915 10.9397 13.4575 10.9222C13.9999 10.9048 14.5249 10.9048 15.0499 10.9048C16.485 10.9048 17.6749 11.0797 18.655 11.4472C19.5335 11.7455 20.3345 12.2357 21 12.8822C21.5638 13.448 21.9995 14.1284 22.2775 14.8772C22.54 15.6122 22.68 16.3648 22.68 17.1523C22.68 18.6572 22.33 19.8997 21.63 20.8798C20.9299 21.8597 19.95 22.5947 18.8125 23.0147C17.6224 23.4523 16.3099 23.6098 14.875 23.6098C14.455 23.6098 14.175 23.6098 13.9999 23.5922C13.825 23.5747 13.5799 23.5747 13.2475 23.5747V29.1922C13.2649 29.3147 13.1775 29.4197 13.0549 29.4373H9.65995C9.52001 29.4373 9.44995 29.3672 9.44995 29.2097ZM13.2649 14.3872V20.2672C13.51 20.2847 13.7374 20.3023 13.9474 20.3023H14.875C15.5575 20.3023 16.24 20.1973 16.8874 19.9873C17.4475 19.8298 17.9374 19.4972 18.3225 19.0597C18.69 18.6223 18.865 18.0272 18.865 17.2573C18.8814 16.7104 18.7418 16.1701 18.4624 15.6997C18.165 15.2447 17.745 14.8948 17.2375 14.7022C16.59 14.4397 15.8899 14.3347 15.1725 14.3522C14.7175 14.3522 14.3149 14.3522 13.9825 14.3698C13.6324 14.3522 13.3875 14.3698 13.2649 14.3872ZM33.6 19.1998C33.075 18.9197 32.515 18.7273 31.9199 18.6047C31.2724 18.4648 30.625 18.3772 29.9599 18.3772C29.61 18.3598 29.2425 18.4123 28.9099 18.4997C28.6825 18.5522 28.4899 18.6748 28.3675 18.8497C28.2799 18.9898 28.2274 19.1647 28.2274 19.3222C28.2274 19.4797 28.2975 19.6372 28.4025 19.7773C28.56 19.9697 28.77 20.1272 28.9975 20.2498C29.4032 20.4599 29.8178 20.6526 30.24 20.8273C31.185 21.1423 32.095 21.5797 32.935 22.1047C33.5125 22.4722 33.985 22.9622 34.3174 23.5573C34.5975 24.1172 34.7374 24.7297 34.72 25.3597C34.7374 26.1823 34.4925 27.0047 34.0375 27.6872C33.5494 28.3858 32.8683 28.927 32.0775 29.2447C31.2199 29.6122 30.1699 29.8048 28.9099 29.8048C28.105 29.8048 27.3175 29.7347 26.53 29.5772C25.9128 29.4706 25.3125 29.2823 24.745 29.0173C24.6225 28.9472 24.535 28.8247 24.5524 28.6847V25.6397C24.5524 25.5872 24.57 25.5172 24.6225 25.4822C24.675 25.4473 24.7275 25.4647 24.78 25.4998C25.4625 25.9022 26.1799 26.1823 26.95 26.3572C27.615 26.5322 28.315 26.6197 29.0149 26.6197C29.68 26.6197 30.1525 26.5322 30.4675 26.3747C30.7474 26.2522 30.94 25.9547 30.94 25.6397C30.94 25.3948 30.7999 25.1672 30.52 24.9397C30.24 24.7123 29.6625 24.4498 28.8049 24.1172C27.9252 23.8073 27.0899 23.3837 26.32 22.8572C25.7716 22.4664 25.3173 21.9582 24.99 21.3697C24.7099 20.8097 24.57 20.1973 24.5875 19.5847C24.5875 18.8323 24.7975 18.1147 25.1824 17.4673C25.62 16.7672 26.2675 16.2073 27.0199 15.8572C27.8425 15.4372 28.875 15.2447 30.1174 15.2447C30.835 15.2447 31.57 15.2972 32.2875 15.4022C32.8125 15.4723 33.3199 15.6122 33.7924 15.8047C33.8625 15.8222 33.9325 15.8923 33.9675 15.9622C33.985 16.0322 34.0024 16.1023 34.0024 16.1722V19.0247C34.0024 19.0948 33.9675 19.1647 33.915 19.1998C33.7575 19.2347 33.67 19.2347 33.6 19.1998Z" fill="#31A8FF"/>
</g>
<defs>
<clipPath id="clip0_386_125">
<rect width="42" height="42" rx="21" fill="white"/>
</clipPath>
</defs>
</svg>
