<svg width="42" height="42" viewBox="0 0 42 42" fill="none" xmlns="http://www.w3.org/2000/svg">
<g clip-path="url(#clip0_386_133)">
<path d="M32.1562 0H9.84375C4.4072 0 0 4.4072 0 9.84375V32.1562C0 37.5928 4.4072 42 9.84375 42H32.1562C37.5928 42 42 37.5928 42 32.1562V9.84375C42 4.4072 37.5928 0 32.1562 0Z" fill="url(#paint0_linear_386_133)"/>
<g filter="url(#filter0_d_386_133)">
<path d="M21.6513 32.182C26.52 32.182 29.454 29.798 29.454 25.8661C29.454 22.8938 27.3607 20.7421 24.2522 20.4013V20.2776C26.536 19.906 28.328 17.7852 28.328 15.4168C28.328 12.042 25.6638 9.84375 21.6037 9.84375H12.4688V32.182H21.6513ZM16.0212 12.6766H20.7473C23.3166 12.6766 24.7756 13.8223 24.7756 15.8967C24.7756 18.1104 23.0787 19.3487 20.002 19.3487H16.0212V12.6766ZM16.0212 29.3491V21.996H20.7155C24.0778 21.996 25.8223 23.2344 25.8223 25.6494C25.8223 28.0642 24.1254 29.3491 20.9217 29.3491H16.0212Z" fill="url(#paint1_linear_386_133)"/>
<path d="M21.6513 32.182C26.52 32.182 29.454 29.798 29.454 25.8661C29.454 22.8938 27.3607 20.7421 24.2522 20.4013V20.2776C26.536 19.906 28.328 17.7852 28.328 15.4168C28.328 12.042 25.6638 9.84375 21.6037 9.84375H12.4688V32.182H21.6513ZM16.0212 12.6766H20.7473C23.3166 12.6766 24.7756 13.8223 24.7756 15.8967C24.7756 18.1104 23.0787 19.3487 20.002 19.3487H16.0212V12.6766ZM16.0212 29.3491V21.996H20.7155C24.0778 21.996 25.8223 23.2344 25.8223 25.6494C25.8223 28.0642 24.1254 29.3491 20.9217 29.3491H16.0212Z" stroke="white" stroke-width="2"/>
</g>
</g>
<defs>
<filter id="filter0_d_386_133" x="-4.53125" y="-3.15625" width="50.9852" height="56.3383" filterUnits="userSpaceOnUse" color-interpolation-filters="sRGB">
<feFlood flood-opacity="0" result="BackgroundImageFix"/>
<feColorMatrix in="SourceAlpha" type="matrix" values="0 0 0 0 0 0 0 0 0 0 0 0 0 0 0 0 0 0 127 0" result="hardAlpha"/>
<feOffset dy="4"/>
<feGaussianBlur stdDeviation="8"/>
<feColorMatrix type="matrix" values="0 0 0 0 0 0 0 0 0 0 0 0 0 0 0 0 0 0 0.15 0"/>
<feBlend mode="normal" in2="BackgroundImageFix" result="effect1_dropShadow_386_133"/>
<feBlend mode="normal" in="SourceGraphic" in2="effect1_dropShadow_386_133" result="shape"/>
</filter>
<linearGradient id="paint0_linear_386_133" x1="0" y1="0" x2="42" y2="42" gradientUnits="userSpaceOnUse">
<stop stop-color="#9013FE"/>
<stop offset="1" stop-color="#6B11F4"/>
</linearGradient>
<linearGradient id="paint1_linear_386_133" x1="14.0754" y1="11.3141" x2="24.37" y2="28.7247" gradientUnits="userSpaceOnUse">
<stop stop-color="white"/>
<stop offset="1" stop-color="#F1E5FC"/>
</linearGradient>
<clipPath id="clip0_386_133">
<rect width="42" height="42" rx="21" fill="white"/>
</clipPath>
</defs>
</svg>
