<svg width="42" height="42" viewBox="0 0 42 42" fill="none" xmlns="http://www.w3.org/2000/svg">
<g clip-path="url(#clip0_386_129)">
<path d="M32.1562 0H9.84375C4.4072 0 0 4.4072 0 9.84375V32.1562C0 37.5928 4.4072 42 9.84375 42H32.1562C37.5928 42 42 37.5928 42 32.1562V9.84375C42 4.4072 37.5928 0 32.1562 0Z" fill="#242938"/>
<path fill-rule="evenodd" clip-rule="evenodd" d="M13.6172 18.0469C14.6016 14.1094 17.0627 12.1406 21 12.1406C26.9062 12.1406 27.6445 16.5703 30.5977 17.3086C32.5666 17.8009 34.2891 17.0627 35.7656 15.0938C34.7814 19.0311 32.3201 21 28.3828 21C22.4766 21 21.7383 16.5703 18.7852 15.832C16.8162 15.3398 15.0938 16.0781 13.6172 18.0469ZM6.23438 26.9062C7.21875 22.9689 9.67969 21 13.6172 21C19.5234 21 20.2617 25.4297 23.2148 26.168C25.1838 26.6603 26.9062 25.922 28.3828 23.9531C27.3986 27.8905 24.9373 29.8594 21 29.8594C15.0938 29.8594 14.3555 25.4297 11.4023 24.6914C9.43359 24.1991 7.71094 24.9373 6.23438 26.9062Z" fill="url(#paint0_linear_386_129)"/>
</g>
<defs>
<linearGradient id="paint0_linear_386_129" x1="14.1914" y1="12.1406" x2="26.8242" y2="30.4336" gradientUnits="userSpaceOnUse">
<stop stop-color="#32B1C1"/>
<stop offset="1" stop-color="#14C6B7"/>
</linearGradient>
<clipPath id="clip0_386_129">
<rect width="42" height="42" rx="21" fill="white"/>
</clipPath>
</defs>
</svg>
