<svg width="42" height="42" viewBox="0 0 42 42" fill="none" xmlns="http://www.w3.org/2000/svg">
<g clip-path="url(#clip0_386_139)">
<path d="M32.1562 0H9.84375C4.4072 0 0 4.4072 0 9.84375V32.1562C0 37.5928 4.4072 42 9.84375 42H32.1562C37.5928 42 42 37.5928 42 32.1562V9.84375C42 4.4072 37.5928 0 32.1562 0Z" fill="#0073AA"/>
<path d="M6.92579 20.9991C6.92579 26.5698 10.1632 31.3841 14.8577 33.6655L8.14428 15.2715C7.33951 17.0736 6.92429 19.0254 6.92579 20.9991ZM30.5006 20.2888C30.5006 18.5496 29.8758 17.3451 29.34 16.4074C28.6265 15.2482 27.9578 14.2664 27.9578 13.1072C27.9578 11.8134 28.939 10.6091 30.3211 10.6091C30.3836 10.6091 30.4427 10.6169 30.5035 10.6203C27.9996 8.32638 24.6637 6.92578 20.9996 6.92578C16.0829 6.92578 11.7571 9.44841 9.24071 13.2694C9.5708 13.2793 9.88203 13.2863 10.1463 13.2863C11.6185 13.2863 13.8971 13.1075 13.8971 13.1075C14.6558 13.0629 14.7453 14.1772 13.9874 14.2669C13.9874 14.2669 13.225 14.3567 12.3766 14.4011L17.5016 29.6455L20.5815 20.4083L18.3888 14.4006C17.631 14.3562 16.9131 14.2664 16.9131 14.2664C16.1546 14.222 16.2435 13.0624 17.002 13.1072C17.002 13.1072 19.3261 13.2857 20.709 13.2857C22.181 13.2857 24.4598 13.1072 24.4598 13.1072C25.2191 13.0624 25.3082 14.1767 24.55 14.2664C24.55 14.2664 23.786 14.3562 22.9393 14.4006L28.0254 29.5295L29.4291 24.8386C30.0376 22.8919 30.5006 21.4937 30.5006 20.2888Z" fill="white"/>
<path d="M21.2466 22.2301L17.0239 34.5003C18.3149 34.8806 19.6538 35.0737 20.9997 35.0737C22.5914 35.0743 24.1717 34.8045 25.6731 34.2759C25.6341 34.2144 25.6006 34.1495 25.5731 34.082L21.2466 22.2301ZM33.3488 14.2468C33.4128 14.7265 33.4445 15.2099 33.4436 15.6939C33.4436 17.122 33.1769 18.7275 32.3735 20.735L28.0745 33.1642C32.2586 30.7243 35.0729 26.1914 35.0729 20.9993C35.0731 18.5523 34.4482 16.2513 33.3488 14.2468Z" fill="white"/>
<path d="M20.9997 4.59375C11.9536 4.59375 4.59375 11.9531 4.59375 20.999C4.59375 30.0461 11.9536 37.4051 20.9997 37.4051C30.0453 37.4051 37.4062 30.0461 37.4062 20.999C37.4059 11.9531 30.0453 4.59375 20.9997 4.59375ZM20.9997 36.6532C12.3683 36.6532 5.34598 29.6307 5.34598 20.999C5.34598 12.3679 12.3682 5.34598 20.9997 5.34598C29.6305 5.34598 36.6524 12.3679 36.6524 20.999C36.6524 29.6307 29.6305 36.6532 20.9997 36.6532Z" fill="white"/>
</g>
<defs>
<clipPath id="clip0_386_139">
<rect width="42" height="42" rx="21" fill="white"/>
</clipPath>
</defs>
</svg>
